<!-- Generated by IcoMoon.io -->
<svg version="1.1" xmlns="http://www.w3.org/2000/svg" width="1024" height="1024" viewBox="0 0 1024 1024">
<title></title>
<g id="icomoon-ignore">
</g>
<path fill="#314cb0" stroke="#1d2d68" stroke-linejoin="miter" stroke-linecap="butt" stroke-miterlimit="4" stroke-width="36.3177" d="M68.533 124.51h886.118c3.971 0 7.17 3.345 7.17 7.499v850.512c0 4.154-3.197 7.499-7.17 7.499h-886.118c-3.971 0-7.17-3.345-7.17-7.499v-850.512c0-4.154 3.197-7.499 7.17-7.499z"></path>
<path fill="#fff" d="M290.006 483.041l131.126-165.85c26.804-33.81 40.207-59.090 40.207-75.844 0-6.092-0.763-10.964-2.284-14.62h228.9c-17.362 9.748-39.141 30.307-65.334 61.679-7.006 8.224-19.342 23.301-37.008 45.233l-171.789 213.825 205.144 282.356c12.489 17.057 28.326 36.246 47.517 57.569 5.176 5.484 12.64 12.032 22.388 19.646h-234.841c1.828-7.006 2.741-13.249 2.742-18.733 0-16.753-11.574-40.967-34.724-72.644l-132.042-180.014v182.298c0 42.338 8.527 72.035 25.585 89.093h-214.738c11.878-11.878 19.495-25.434 22.845-40.663 1.828-8.528 2.742-24.521 2.742-47.973v-503.033c0-23.454-0.913-39.444-2.742-47.973-3.351-15.228-10.965-28.784-22.845-40.663h214.738c-17.058 17.058-25.585 46.602-25.585 88.637v167.678z"></path>
<path fill="#fff" d="M903.607 407.197v419.424c0 21.93 0.609 36.246 1.829 42.947 2.437 13.707 8.834 26.196 19.19 37.465h-201.031c10.356-11.27 16.753-23.759 19.19-37.465 1.218-6.701 1.828-21.017 1.828-42.947v-339.925c0-21.93-0.609-36.094-1.828-42.491-2.437-13.402-8.681-25.738-18.733-37.008h179.557zM824.108 168.245c25.28 0.001 46.755 8.986 64.421 26.956 17.97 17.667 26.956 39.141 26.956 64.421 0 25.89-8.834 47.669-26.5 65.334-17.362 17.362-38.987 26.043-64.879 26.043-25.281 0.001-46.908-8.834-64.879-26.5-17.666-17.97-26.5-39.596-26.5-64.879 0-25.889 8.681-47.516 26.043-64.879 17.666-17.665 39.445-26.5 65.334-26.5z"></path>
<path fill="#1b2b63" d="M1497.106 876.88c-48.431 27.414-102.649 41.12-162.653 41.12-95.337 0-171.334-35.332-227.987-105.999-52.694-65.487-79.041-147.117-79.041-244.893 0-109.654 32.286-196.767 96.861-261.34 59.699-59.699 130.366-89.55 211.996-89.551 53.303 0.001 107.825 15.534 163.566 46.602 14.315 7.919 25.889 12.336 34.724 13.249l-81.783 118.791c-26.805-34.114-62.595-51.171-107.368-51.172-70.056 0.001-115.745 43.252-137.066 129.756-7.006 28.327-10.51 59.549-10.509 93.661 0 96.861 24.52 162.957 73.56 198.289 22.845 16.449 47.212 24.672 73.102 24.672 46.297 0 87.417-19.799 123.361-59.395l75.844 124.274c-3.656-0.913-19.191 6.397-46.602 21.93z"></path>
<path fill="#1b2b63" d="M1829.308 766.768v-79.041c-11.574-2.133-23.759-3.197-36.552-3.197-25.585 0-47.517 4.568-65.792 13.707-23.15 11.574-34.724 28.936-34.724 52.085 0 17.362 6.548 31.22 19.646 41.576 11.878 9.443 26.804 14.164 44.775 14.164 33.201 0 57.415-13.098 72.644-39.292zM2008.866 907.033h-170.42v-38.836c-31.373 31.982-71.731 48.277-121.075 48.888-35.028 0.302-66.859-7.464-95.49-23.301-30.155-16.753-52.085-40.511-65.792-71.275-9.747-21.93-14.62-46.755-14.62-74.473 0-63.354 30.915-110.109 92.748-140.265 35.637-17.361 85.591-26.042 149.859-26.043 9.138 0 24.976 0.609 47.517 1.828 0-52.085-22.692-78.127-68.076-78.128-38.683 0-79.346 11.27-121.99 33.81l-45.233-109.196c10.052 0 29.697-3.655 58.938-10.965l62.137-15.533c21.016-4.263 43.862-6.396 68.534-6.397 97.469 0.001 158.693 31.069 183.669 93.206 12.182 30.46 18.275 68.076 18.275 112.851v223.419c0 21.93 0.609 36.246 1.828 42.947 2.437 13.707 8.834 26.196 19.19 37.465z"></path>
<path fill="#1b2b63" d="M2358.432 766.768v-227.987c-20.104-17.057-42.491-25.585-67.163-25.585-53.608 0-80.412 52.086-80.412 156.256 0 84.067 24.52 126.101 73.56 126.101 25.585 0 50.256-9.594 74.015-28.784zM2337.871 185.151h179.557v641.472c0 38.074 7.005 64.879 21.017 80.412h-170.876v-38.836c-33.202 32.591-75.54 48.888-127.016 48.888-43.558 0-81.325-13.098-113.309-39.292-30.155-24.672-52.239-58.329-66.25-100.973-9.747-29.851-14.62-63.050-14.62-99.602 0-121.228 30.915-204.077 92.748-248.548 29.24-21.016 62.899-31.526 100.973-31.526 50.257 0.001 89.701 13.554 118.335 40.663v-173.16c0-21.929-0.609-36.094-1.828-42.491-2.438-13.402-8.681-25.738-18.733-37.008z"></path>
<path fill="#314cb0" d="M716.214 160.729h219.339v209.391h-219.339z"></path>
<path fill="#f70" d="M916.675 124.732c0 51.144-41.584 92.606-92.879 92.606s-92.879-41.462-92.879-92.606c0-51.144 41.585-92.606 92.879-92.606s92.879 41.462 92.879 92.606z"></path>
</svg>
