<!-- Generated by IcoMoon.io -->
<svg version="1.1" xmlns="http://www.w3.org/2000/svg" width="1024" height="1024" viewBox="0 0 1024 1024">
<title></title>
<g id="icomoon-ignore">
</g>
<path fill="#e31818" d="M899.016 374.994c-76.285-12.106-212.673-16.854-259.298 52.516-36.045 53.607 32.064 127.053 94.060 198.112 49.677 56.983 103.822 111.409 81.69 143.2-17.997 25.96-133.601 25.951-173.405 27.972-48.373 2.558-117.948 2.677-130.114 9.054-10.955 5.721-17.008 23.445 23.939 30.538 32.831 5.729 111.077 17.341 193.687 17.289 86.208 0 176.73-13.692 196.364-78.467 15.763-52.022-38.935-107.752-87.035-164.249-52.678-61.894-106.004-106.012-101.486-149.901 3.436-34.076 72.363-36.045 186.662-37.955 23.88-0.435 71.161-1.526 62.005-19.745-8.176-16.198-43.565-21.535-87.027-28.407z"></path>
<path fill="#e31818" d="M459.753 129.063c81.69 0 160.37 14.51 179.134 35.5 29.284 32.72-21.16 113.37-176.347 223.407-29.771 21.109-51.97 40.521-56.881 50.061-2.669 5.073-1.415 12.438 6.761 13.47 8.559 1.091 29.012-3.274 62.815-19.191 137.855-64.887 296.051-197.072 264.857-287.756-19.080-55.295-121.273-72.031-207.652-68.322-85.774 3.657-163.976 23.607-159.117 38.876 5.993 18.645 64.238 13.956 86.43 13.956z"></path>
<path fill="#e31818" d="M547.343 529.366c-48.97-32.609-136.167-43.513-207.984-39.864-63.914 3.274-173.9 23.010-169.756 42.592 3.871 21.262 73.506 14.672 105.407 14.672 70.121 0 181.419 4.195 198.93 48.040 37.793 94.452-218.564 264.141-273.203 247.789-24.706-7.358 50.223-130.651 77.384-175.042 16.19-26.446 40.794-68.049 19.796-70.837-23.453-3.112-49.404 35.994-66.199 58.569-45.585 61.297-92.372 128.306-129.781 197.072-11.56 21.262-50.009 85.228-36.804 93.515 12.319 7.69 70.94-3.274 145.485-31.953 234.481-90.138 339.999-207.438 368.295-304.44 9.924-34.187-7.195-63.966-31.569-80.155z"></path>
<path fill="#e31818" d="M1812.934 463.158c-144.010 0-221.335 92.969-240.21 203.832-18.543 110.974 27.213 203.73 171.283 203.73 143.797 0 221.232-92.756 240.099-203.73 18.756-110.863-27.213-203.832-171.172-203.832zM1895.010 666.947c-15.218 90.744-58.185 136.763-139.867 136.763-81.579 0-108.843-46.020-93.412-136.763 15.269-90.735 58.023-136.815 139.867-136.815 81.638 0 108.783 46.079 93.412 136.815z"></path>
<path fill="#e31818" d="M1241.196 548.394c-5.073 31.194 4.851 68.433 40.845 92.866l128.852 87.197c13.683 9.054 20.179 15.209 18.594 25.789-2.396 14.561-10.256 20.614-36.915 20.614h-149.739c-15.874 0-24.698 7.366-27.699 25.030v54.153h175.477c76.89 0 114.845-43.948 122.526-90.684 7.247-43.948-7.911-75.415-37.247-95.543l-136.815-94.333c-11.015-7.69-13.743-11.671-12.924-17.392 1.253-9.651 10.145-13.581 25.687-13.581h156.338c19.199 0 30.043-18.867 32.942-37.733v-41.612h-206.612c-45.866-0.051-85.995 39.805-93.353 85.228z"></path>
<path fill="#e31818" d="M2284.717 790.454h-171.061l58.953-313.826c1.313-6.377-3.495-13.419-11.612-13.419h-75.304l-73.506 390.878h283.502l7.306-39.208c3.214-17.341-2.779-24.425-18.321-24.425z"></path>
<path fill="#e31818" d="M4584.002 465.562v0h-19.847l-207.166 172.093 27.426-151.973c1.799-8.457-2.344-14.288-5.84-16.633-3.657-2.831-8.235-4.203-12.711-4.203h-19.847l-74.921 390.767h44.221l32.882-172.911 164.079 173.081h19.626c3.981-0.162 7.69-0.656 10.955-2.95 3.495-2.558 5.235-6.931 5.235-10.793 0-7.093-5.993-14.126-5.993-14.126l-155.306-163.806 207.379-170.737c0 0 5.78-4.8 5.78-14.178 0.060-3.709-1.688-8.184-4.962-10.58-3.325-2.566-7.255-3.052-10.904-3.052z"></path>
<path fill="#e31818" d="M4073.316 464.808h-103.557l-74.818 390.981h44.281l31.356-168.068 80.761 0.486 100.335 167.677h22.362c4.033 0 7.639-0.656 10.963-2.95 3.495-2.558 5.286-6.931 5.124-10.793 0-5.559-5.721-14.126-5.721-14.126l-85.56-142.049c101.596-8.884 128.639-78.416 134.854-106.226 4.962-22.464 3.657-59.217-14.178-79.124-31.297-34.843-85.066-35.721-146.201-35.721zM4119.241 642.411c-24.596 6.385-59.166 7.579-95.049 7.579-12.711-0.213-30.759-0.324-46.514-0.494l26.446-142.271c20.998-0.060 89.49-1.040 112.714 0.111 9.267 0.486 17.503 1.091 22.516 2.072 19.029 3.495 31.459 7.093 39.43 14.834 34.732 32.064 3.598 101.648-59.498 118.17z"></path>
<path fill="#e31818" d="M4738.608 464.808c-77.657 0.222-85.782 62.056-86.217 91.281 0 30.751 23.010 55.236 34.408 64.946l113.208 107.649c13.419 12.711 20.069 27.707 20.069 41.885 0 23.88-18.756 43.351-49.072 43.241-0.111 0.111-146.525 0.111-147.889 0.597-4.911 0.87-9.813 6.982-9.71 11.833h-0.486l0.486 0.222v29.336h164.514c77.598-0.273 85.884-62.107 86.217-91.281v-0.162c0-40.513-38.338-71.766-38.5-71.766l-107.317-102.517c-13.308-12.762-21.595-25.951-21.757-40.137 0.162-23.999 18.764-43.189 49.183-43.189 0.162 0 148.162-0.213 149.364-0.546l0.324 1.040-0.222-1.040c4.748-0.767 9.975-6.923 9.813-11.722v-29.609h-166.372z"></path>
<path fill="#e31818" d="M2799.433 463.158h-216.757l-1.091 6.266c-5.013 26.608-2.779 57.197 40.521 57.197h160.43c63.582 0 87.905 44.715 72.252 128.477-14.399 76.668-57.197 135.348-121.827 135.348h-87.086l41.493-219.817h-74.102c-9.975 0-17.016 6.982-17.997 13.3l-50.879 270.032h169.808c125.425 0 212.886-57.094 239.775-201.709 21.16-110.863-26.667-189.007-154.539-189.007z"></path>
<path fill="#e31818" d="M2498.147 463.158h-75.364l-73.668 390.767h89.49l71.11-377.459c1.253-6.266-3.546-13.308-11.612-13.308z"></path>
<path fill="#e31818" d="M3728.949 464.087v-0.213c-129.73-9.71-212.068 77.93-240.423 188.998-25.951 100.011 9.003 204.821 131.588 218.666 131.691 9.813 214.199-77.922 241.404-188.998 24.425-100.121-11.612-204.821-132.569-218.453zM3818.344 679.164c-27.869 113.916-107.479 156.235-182.246 152.356l-7.366-0.332c-72.466-9.003-125.911-63.25-97.445-174.88 29.114-113.864 113.583-156.176 187.481-152.254 73.395 7.247 126.891 63.471 99.576 175.153z"></path>
<path fill="#e31818" d="M3488.543 480.285c0.162-3.871-1.688-9.156-5.448-11.944-3.649-2.779-7.63-3.487-11.612-3.487h-20.341l-156.286 343.81-40.785-184.199c-2.344-16.19-15.652-27.213-31.578-26.343h-26.232l-123.353 208.632 1.253-325.327c0-4.365-1.688-9.813-5.721-12.814-3.819-3.052-8.125-3.768-12.328-3.768h-26.343v390.767h34.246c9.821 0.162 18.756-2.182 26.062-7.358 6.65-4.689 12.268-11.074 17.289-18.815l108.187-186.986 44.826 213.159h29.114c18.372 0 33.701-10.256 41.663-27.972l155.306-339.121c1.202-2.728 2.123-4.476 2.123-8.235z"></path>
</svg>
